<svg xmlns="http://www.w3.org/2000/svg" xmlns:xlink="http://www.w3.org/1999/xlink" fill="none" version="1.1" width="435.5777587890625" height="435.578125" viewBox="0 0 435.5777587890625 435.578125"><defs><linearGradient x1="0.5" y1="0" x2="0.5" y2="1" id="master_svg0_2215_06303"><stop offset="0%" stop-color="#A18C5B" stop-opacity="1"/><stop offset="63.01369667053223%" stop-color="#AF9761" stop-opacity="1"/><stop offset="100%" stop-color="#6C5E27" stop-opacity="1"/></linearGradient><filter id="master_svg1_2214_07692" filterUnits="objectBoundingBox" color-interpolation-filters="sRGB" x="-0.03076923076923077" y="-0.03314917127071823" width="1.0615384615384615" height="1.0662983425414365"><feFlood flood-opacity="0" result="BackgroundImageFix"/><feBlend mode="normal" in="SourceGraphic" in2="BackgroundImageFix" result="shape"/><feGaussianBlur stdDeviation="1.5" result="effect1_foregroundBlur"/></filter><linearGradient x1="0.5" y1="0" x2="0.8745313491809853" y2="0.8245489813214347" id="master_svg2_2215_06025"><stop offset="4.285714402794838%" stop-color="#0F0E0E" stop-opacity="1"/><stop offset="100%" stop-color="#242323" stop-opacity="1"/></linearGradient><linearGradient x1="0.5" y1="0" x2="0.8745313491809853" y2="0.8245489813214347" id="master_svg3_2215_06025"><stop offset="4.285714402794838%" stop-color="#0F0E0E" stop-opacity="1"/><stop offset="100%" stop-color="#242323" stop-opacity="1"/></linearGradient></defs><g transform="matrix(0.7071067690849304,-0.7071067690849304,0.7071067690849304,0.7071067690849304,-154.00012032641098,63.78894217358902)"><path d="M0,217.7890625L308,217.7890625L308,525.7890625L0,525.7890625L0,217.7890625Z" fill="#A73434" fill-opacity="1"/><path d="M0,217.7890625L308,217.7890625L308,525.7890625L0,525.7890625L0,217.7890625ZM9,226.7890625L9,516.7890625L299,516.7890625L299,226.7890625L9,226.7890625Z" fill-rule="evenodd" fill="url(#master_svg0_2215_06303)" fill-opacity="1"/></g><path d="M108.895245,253.32227Q107,253.32227,107,251.67514Q107,250.02803,109.3164141,248.17503Q125.531313,233.76286,142.062099,215.02704599999998Q158.59286500000002,196.291199,161.962189,185.99678Q162.172787,185.585037,161.856903,185.27617600000002Q161.541035,184.967354,160.90928300000002,185.17321800000002Q155.855286,186.614464,150.169548,189.188065Q144.483799,191.761665,143.009708,192.379341Q138.798044,193.820557,135.639309,193.820557Q132.480556,193.820557,128.69004999999999,191.761665Q123.214899,188.673325,118.160902,177.761261L117.739732,176.114143Q117.739732,173.23172,121.740808,173.23172L127.005388,173.23172Q131.006464,173.23172,132.901724,173.025845Q139.640385,171.99641,150.801285,167.981575Q161.962189,163.96676300000001,167.01618200000001,160.878437Q170.806671,159.02544799999998,173.123085,159.02544799999998Q174.807762,159.02544799999998,176.492447,159.849003Q180.072334,161.49609,185.231628,166.025627Q190.390923,170.555168,193.12851,174.46706Q194.39201400000002,175.908268,194.39201400000002,178.378914Q194.39201400000002,180.026028,193.12851,181.673149Q188.495689,186.40856200000002,186.389832,190.732231Q184.284019,194.644112,179.230026,202.46785699999998Q182.38874800000002,203.49728399999998,184.073425,204.32084700000001Q194.181419,208.850388,194.181419,218.11536999999998Q194.181419,224.08612,188.91686199999998,231.90987Q187.653343,234.17462999999998,184.915756,234.17462999999998Q182.809944,234.17462999999998,181.757011,232.52756L175.439507,223.67435L174.807762,230.88043Q174.597198,234.38054,174.597198,244.05727000000002L174.807762,267.73441Q174.807762,274.73462,174.386604,282.14658Q173.33369399999998,298.00002,167.437355,298.00002Q163.857449,298.00002,159.961658,295.73519999999996Q156.065868,293.47044,153.328285,288.94088999999997Q149.53779600000001,282.55835,149.53779600000001,275.55818Q149.53779600000001,273.49928,149.748383,272.46985Q152.696529,253.93991,152.275379,232.11577Q130.795897,249.61626,109.9481514,253.11636L108.895245,253.32227ZM144.062626,122.377315Q143.43087400000002,121.3478832,143.43087400000002,120.5243571Q143.43087400000002,119.2889864,144.062626,118.2595873Q144.694378,117.23012257,145.95787,117.024216538Q151.64362,116.81834324,160.803978,118.3625076Q169.964367,119.906672,175.018372,121.965569Q186.389832,126.7009821,186.389832,136.995399Q186.389832,143.377932,181.125282,151.201672Q180.282936,152.231136,178.808853,152.951744Q177.334785,153.672348,175.860672,153.672348Q173.123085,153.672348,171.859619,151.819355Q165.54211,144.407362,157.434662,135.863014Q149.327209,127.31866600000001,144.062626,122.377315ZM191.022667,139.260172Q189.96974899999998,137.613054,189.96974899999998,136.58362Q189.96974899999998,134.730631,193.54968300000002,134.524723Q210.60692,133.289419,237.24568,128.348066Q263.88445,123.4067793,277.57232999999997,118.6713339Q279.46761000000004,118.0536813,280.94167,118.0536813Q282.41577,118.0536813,284.94277999999997,118.6713339Q288.52266,120.5243571,293.05019,125.1568174Q297.57776,129.78931,298.84126000000003,131.848207Q299.89417000000003,133.289419,299.89417000000003,135.348282Q299.89417000000003,137.201305,298.73596,138.333658Q297.57776,139.46604200000002,295.68251,139.671947Q280.09934999999996,140.701382,255.03998,144.407362Q229.98058,148.113344,215.23975000000002,151.407578Q212.29156,151.819355,211.23865999999998,151.819355Q206.605827,151.819355,202.394173,149.966366Q196.07666799999998,146.672132,191.022667,139.260172ZM199.235413,209.262169Q199.024857,208.644516,199.024857,207.820953Q199.024857,206.379738,200.92009000000002,206.379738Q207.02699,205.967964,213.34447,207.20327Q219.66197,208.438606,223.87366,210.703377L224.92657,211.32106Q240.08856,209.05629,255.98756,206.173836Q271.88662999999997,203.29142000000002,276.51945,201.644295Q278.41466,201.02664900000002,280.09934999999996,201.02664900000002Q283.46871999999996,201.02664900000002,290.31264999999996,205.453232Q297.15659,209.879814,300.94707,213.585838Q302,214.821136,302,216.88003500000002Q302,218.9389,300.94707,220.99779999999998Q299.05182,223.05666,299.05182,227.17444999999998Q299.05182,239.52773000000002,298.52534,255.38112Q297.99893,271.23451,296.73541,279.26416Q295.89311,285.44083,292.20789,288.94088999999997Q288.52266,292.44099,281.57343000000003,294.49989Q279.88874999999996,294.91166999999996,279.04643,294.91166999999996Q274.4136,294.91166999999996,271.67602999999997,291.61744999999996Q265.77968,283.38193,264.93739,282.35249Q236.71922,283.58783,225.13715000000002,285.02904L225.13715000000002,287.29381Q225.13715000000002,290.79391,222.92603,292.95573Q220.71492,295.11755,217.13499000000002,295.11755Q212.71273,295.11755,207.86934,291.82336Q202.815338,288.52914,203.025902,279.67593Q203.236504,276.17583,203.236504,262.79312Q203.236504,244.46904999999998,202.288872,228.71861Q201.341263,212.968155,199.235413,209.262169ZM207.65874,160.878437Q207.02699,159.643101,207.02699,158.819542Q207.02699,157.790108,207.76404,157.172424Q208.50108,156.554768,209.55398,156.760677Q217.13499000000002,156.554768,224.5054,159.231323Q236.29805,158.201889,248.61719,155.937115Q260.93628,153.672348,264.72679,151.201672Q266.8326,149.966366,267.99084,149.657509Q269.14902,149.348682,270.62307999999996,149.76046Q278.83586,152.642879,286.20624,158.201889Q288.73326,160.05487399999998,288.73326,162.113773Q288.73326,162.937302,287.46976,165.81975599999998Q286.20624,168.496307,284.10042999999996,177.143604L282.83694,181.673149Q280.52052000000003,191.761665,275.46652,195.879417Q271.25485000000003,198.76187099999999,267.88554,198.76187099999999Q265.56914,198.76187099999999,263.77914,197.526543Q261.98921,196.291199,261.14687000000004,194.43821L260.72569,193.614647Q246.82721,194.232338,232.92872,196.702972Q231.66522,202.87963100000002,225.34774,202.87963100000002Q222.61016,202.87963100000002,219.87257,202.05607600000002Q216.50322,201.23251299999998,215.02915000000002,199.17365999999998Q213.55507,197.114754,213.13389999999998,193.202904Q212.71273,190.320442,212.71273,189.085106Q211.87039,181.673149,210.60692,173.643497Q209.34341,165.61385,207.65874,160.878437ZM225.13715000000002,268.55797Q233.56046,268.14619,237.98271,267.73441L238.82506,254.35168Q233.56046,254.96935,230.82290999999998,254.96935L229.76996,254.96935Q227.03239000000002,254.96935,225.13715000000002,253.73404L225.13715000000002,268.55797ZM239.03563,239.32187Q239.03563,232.93929,238.82506,230.05688Q238.40388,225.73324,237.77216,223.67435Q229.34881000000001,224.70377000000002,225.34774,225.52733999999998Q225.13715000000002,229.23332,225.13715000000002,240.96895L239.03563,239.32187ZM232.50754999999998,181.261368Q245.56371,180.026028,261.56804,177.34948Q261.98921,175.49649,261.98921,171.172855Q261.98921,168.702179,258.61987,169.113956Q238.82506,170.966949,232.0864,171.99641L232.0864,172.20228600000002L232.50754999999998,181.261368ZM257.56693,221.40957Q259.25162,222.02722,259.67278999999996,222.23311999999999Q261.56804,223.05666,261.56804,225.32143000000002Q261.56804,226.35089,261.14687000000004,227.17444999999998Q260.30457,229.23332,259.88336000000004,234.17462999999998Q259.88336000000004,235.61584,259.67278999999996,236.23354Q263.67384000000004,235.61584,264.72679,234.9982Q265.99025,234.38054,267.0432,234.38054Q268.51727,234.38054,269.78079,235.20406Q272.30777,237.67473999999999,274.62419,241.58663L275.04535999999996,222.23311999999999Q275.04535999999996,220.99779999999998,274.20303,220.27719000000002Q273.36072,219.55658,271.67602999999997,219.76246L257.56693,221.40957ZM258.83044,265.88142Q262.41039,265.67554,268.51727,264.85197L269.35962,264.85197Q271.46542,264.85197,273.15009,266.4991L273.78184999999996,267.52853L274.4136,251.26335Q274.20303,251.46924,273.78184999999996,251.46924L259.04102,252.91048L258.83044,265.88142Z" fill="url(#master_svg2_2215_06025)" fill-opacity="1" filter="url(#master_svg1_2214_07692)"/><path d="M108.895245,253.32227Q107,253.32227,107,251.67514Q107,250.02803,109.3164141,248.17503Q125.531313,233.76286,142.062099,215.02704599999998Q158.59286500000002,196.291199,161.962189,185.99678Q162.172787,185.585037,161.856903,185.27617600000002Q161.541035,184.967354,160.90928300000002,185.17321800000002Q155.855286,186.614464,150.169548,189.188065Q144.483799,191.761665,143.009708,192.379341Q138.798044,193.820557,135.639309,193.820557Q132.480556,193.820557,128.69004999999999,191.761665Q123.214899,188.673325,118.160902,177.761261L117.739732,176.114143Q117.739732,173.23172,121.740808,173.23172L127.005388,173.23172Q131.006464,173.23172,132.901724,173.025845Q139.640385,171.99641,150.801285,167.981575Q161.962189,163.96676300000001,167.01618200000001,160.878437Q170.806671,159.02544799999998,173.123085,159.02544799999998Q174.807762,159.02544799999998,176.492447,159.849003Q180.072334,161.49609,185.231628,166.025627Q190.390923,170.555168,193.12851,174.46706Q194.39201400000002,175.908268,194.39201400000002,178.378914Q194.39201400000002,180.026028,193.12851,181.673149Q188.495689,186.40856200000002,186.389832,190.732231Q184.284019,194.644112,179.230026,202.46785699999998Q182.38874800000002,203.49728399999998,184.073425,204.32084700000001Q194.181419,208.850388,194.181419,218.11536999999998Q194.181419,224.08612,188.91686199999998,231.90987Q187.653343,234.17462999999998,184.915756,234.17462999999998Q182.809944,234.17462999999998,181.757011,232.52756L175.439507,223.67435L174.807762,230.88043Q174.597198,234.38054,174.597198,244.05727000000002L174.807762,267.73441Q174.807762,274.73462,174.386604,282.14658Q173.33369399999998,298.00002,167.437355,298.00002Q163.857449,298.00002,159.961658,295.73519999999996Q156.065868,293.47044,153.328285,288.94088999999997Q149.53779600000001,282.55835,149.53779600000001,275.55818Q149.53779600000001,273.49928,149.748383,272.46985Q152.696529,253.93991,152.275379,232.11577Q130.795897,249.61626,109.9481514,253.11636L108.895245,253.32227ZM144.062626,122.377315Q143.43087400000002,121.3478832,143.43087400000002,120.5243571Q143.43087400000002,119.2889864,144.062626,118.2595873Q144.694378,117.23012257,145.95787,117.024216538Q151.64362,116.81834324,160.803978,118.3625076Q169.964367,119.906672,175.018372,121.965569Q186.389832,126.7009821,186.389832,136.995399Q186.389832,143.377932,181.125282,151.201672Q180.282936,152.231136,178.808853,152.951744Q177.334785,153.672348,175.860672,153.672348Q173.123085,153.672348,171.859619,151.819355Q165.54211,144.407362,157.434662,135.863014Q149.327209,127.31866600000001,144.062626,122.377315ZM191.022667,139.260172Q189.96974899999998,137.613054,189.96974899999998,136.58362Q189.96974899999998,134.730631,193.54968300000002,134.524723Q210.60692,133.289419,237.24568,128.348066Q263.88445,123.4067793,277.57232999999997,118.6713339Q279.46761000000004,118.0536813,280.94167,118.0536813Q282.41577,118.0536813,284.94277999999997,118.6713339Q288.52266,120.5243571,293.05019,125.1568174Q297.57776,129.78931,298.84126000000003,131.848207Q299.89417000000003,133.289419,299.89417000000003,135.348282Q299.89417000000003,137.201305,298.73596,138.333658Q297.57776,139.46604200000002,295.68251,139.671947Q280.09934999999996,140.701382,255.03998,144.407362Q229.98058,148.113344,215.23975000000002,151.407578Q212.29156,151.819355,211.23865999999998,151.819355Q206.605827,151.819355,202.394173,149.966366Q196.07666799999998,146.672132,191.022667,139.260172ZM199.235413,209.262169Q199.024857,208.644516,199.024857,207.820953Q199.024857,206.379738,200.92009000000002,206.379738Q207.02699,205.967964,213.34447,207.20327Q219.66197,208.438606,223.87366,210.703377L224.92657,211.32106Q240.08856,209.05629,255.98756,206.173836Q271.88662999999997,203.29142000000002,276.51945,201.644295Q278.41466,201.02664900000002,280.09934999999996,201.02664900000002Q283.46871999999996,201.02664900000002,290.31264999999996,205.453232Q297.15659,209.879814,300.94707,213.585838Q302,214.821136,302,216.88003500000002Q302,218.9389,300.94707,220.99779999999998Q299.05182,223.05666,299.05182,227.17444999999998Q299.05182,239.52773000000002,298.52534,255.38112Q297.99893,271.23451,296.73541,279.26416Q295.89311,285.44083,292.20789,288.94088999999997Q288.52266,292.44099,281.57343000000003,294.49989Q279.88874999999996,294.91166999999996,279.04643,294.91166999999996Q274.4136,294.91166999999996,271.67602999999997,291.61744999999996Q265.77968,283.38193,264.93739,282.35249Q236.71922,283.58783,225.13715000000002,285.02904L225.13715000000002,287.29381Q225.13715000000002,290.79391,222.92603,292.95573Q220.71492,295.11755,217.13499000000002,295.11755Q212.71273,295.11755,207.86934,291.82336Q202.815338,288.52914,203.025902,279.67593Q203.236504,276.17583,203.236504,262.79312Q203.236504,244.46904999999998,202.288872,228.71861Q201.341263,212.968155,199.235413,209.262169ZM207.65874,160.878437Q207.02699,159.643101,207.02699,158.819542Q207.02699,157.790108,207.76404,157.172424Q208.50108,156.554768,209.55398,156.760677Q217.13499000000002,156.554768,224.5054,159.231323Q236.29805,158.201889,248.61719,155.937115Q260.93628,153.672348,264.72679,151.201672Q266.8326,149.966366,267.99084,149.657509Q269.14902,149.348682,270.62307999999996,149.76046Q278.83586,152.642879,286.20624,158.201889Q288.73326,160.05487399999998,288.73326,162.113773Q288.73326,162.937302,287.46976,165.81975599999998Q286.20624,168.496307,284.10042999999996,177.143604L282.83694,181.673149Q280.52052000000003,191.761665,275.46652,195.879417Q271.25485000000003,198.76187099999999,267.88554,198.76187099999999Q265.56914,198.76187099999999,263.77914,197.526543Q261.98921,196.291199,261.14687000000004,194.43821L260.72569,193.614647Q246.82721,194.232338,232.92872,196.702972Q231.66522,202.87963100000002,225.34774,202.87963100000002Q222.61016,202.87963100000002,219.87257,202.05607600000002Q216.50322,201.23251299999998,215.02915000000002,199.17365999999998Q213.55507,197.114754,213.13389999999998,193.202904Q212.71273,190.320442,212.71273,189.085106Q211.87039,181.673149,210.60692,173.643497Q209.34341,165.61385,207.65874,160.878437ZM225.13715000000002,268.55797Q233.56046,268.14619,237.98271,267.73441L238.82506,254.35168Q233.56046,254.96935,230.82290999999998,254.96935L229.76996,254.96935Q227.03239000000002,254.96935,225.13715000000002,253.73404L225.13715000000002,268.55797ZM239.03563,239.32187Q239.03563,232.93929,238.82506,230.05688Q238.40388,225.73324,237.77216,223.67435Q229.34881000000001,224.70377000000002,225.34774,225.52733999999998Q225.13715000000002,229.23332,225.13715000000002,240.96895L239.03563,239.32187ZM232.50754999999998,181.261368Q245.56371,180.026028,261.56804,177.34948Q261.98921,175.49649,261.98921,171.172855Q261.98921,168.702179,258.61987,169.113956Q238.82506,170.966949,232.0864,171.99641L232.0864,172.20228600000002L232.50754999999998,181.261368ZM257.56693,221.40957Q259.25162,222.02722,259.67278999999996,222.23311999999999Q261.56804,223.05666,261.56804,225.32143000000002Q261.56804,226.35089,261.14687000000004,227.17444999999998Q260.30457,229.23332,259.88336000000004,234.17462999999998Q259.88336000000004,235.61584,259.67278999999996,236.23354Q263.67384000000004,235.61584,264.72679,234.9982Q265.99025,234.38054,267.0432,234.38054Q268.51727,234.38054,269.78079,235.20406Q272.30777,237.67473999999999,274.62419,241.58663L275.04535999999996,222.23311999999999Q275.04535999999996,220.99779999999998,274.20303,220.27719000000002Q273.36072,219.55658,271.67602999999997,219.76246L257.56693,221.40957ZM258.83044,265.88142Q262.41039,265.67554,268.51727,264.85197L269.35962,264.85197Q271.46542,264.85197,273.15009,266.4991L273.78184999999996,267.52853L274.4136,251.26335Q274.20303,251.46924,273.78184999999996,251.46924L259.04102,252.91048L258.83044,265.88142Z" fill="url(#master_svg3_2215_06025)" fill-opacity="1"/></svg>